<?xml version="1.0" encoding="UTF-8" standalone="no"?><!DOCTYPE svg PUBLIC "-//W3C//DTD SVG 1.1//EN" "http://www.w3.org/Graphics/SVG/1.1/DTD/svg11.dtd"><svg viewBox="0 0 1300 360" version="1.1" xmlns="http://www.w3.org/2000/svg" xmlns:xlink="http://www.w3.org/1999/xlink" xml:space="preserve" style="fill-rule:evenodd;clip-rule:evenodd;stroke-linejoin:round;stroke-miterlimit:1.41421;"><g id="bible"><path d="M138.64,23.31l-3.03,-17.183l40.298,15.245l-32.68,27.957l-3.025,-17.156l-121.132,21.359l10.627,60.269l-8.864,1.562l-12.189,-69.131l129.995,-22.922Zm10.714,8.935l9.156,-7.833l-11.29,-4.271l2.134,12.104Z" style="fill:#1fcc87;"/><path d="M264.081,200.839l17.183,-3.03l-15.245,40.298l-27.957,-32.68l17.155,-3.025l-32.579,-184.764l-37.673,6.643l-1.562,-8.864l46.535,-8.205l34.143,193.627Zm-8.935,10.714l7.833,9.156l4.271,-11.29l-12.104,2.134Z" style="fill:#fa703f;"/><path d="M152.605,328.79l121.132,-21.358l-10.628,-60.269l8.864,-1.562l12.19,69.131l-129.995,22.922l3.03,17.183l-40.298,-15.245l32.68,-27.957l3.025,17.155Zm-18.307,7.762l11.29,4.271l-2.134,-12.104l-9.156,7.833Z" style="fill:#0fb6ce;"/><path d="M28.521,160.16l-17.183,3.03l15.245,-40.298l27.957,32.68l-17.156,3.025l32.579,184.765l37.674,-6.643l1.562,8.864l-46.536,8.205l-34.142,-193.628Zm-3.169,-8.58l12.104,-2.134l-7.833,-9.156l-4.271,11.29Z" style="fill:#ffc31f;"/></g><g id="cross_Copy"><g><path d="M157.349,161.473l21.827,123.786l-16.486,2.907l-21.827,-123.786l6.754,-9.557l9.732,6.65Z" style="fill-opacity:0;fill-rule:nonzero;"/><path d="M161.452,158.826l22.937,130.083l-25.349,4.47l-22.934,-130.065l10.393,-14.706l14.953,10.218Zm-15.832,6.62l20.72,117.507l7.623,-1.344l-20.717,-117.489l-4.511,-3.082l-3.115,4.408Z" style="fill:#00c97c;"/></g><g><path d="M141.688,72.834l10.124,57.414l-6.805,9.807l-9.633,-6.909l-10.124,-57.413l16.438,-2.899Z" style="fill-opacity:0;fill-rule:nonzero;"/><path d="M156.565,131.291l-10.467,15.085l-14.837,-10.642l-11.224,-63.651l25.301,-4.462l11.227,63.67Zm-26.102,-51.908l9.024,51.175l4.429,3.176l3.143,-4.529l-9.021,-51.158l-7.575,1.336Z" style="fill:#29b6ce;"/></g><g><path d="M160.929,136.093l59.096,-10.42l2.899,16.438l-59.097,10.42l-9.703,-6.631l6.805,-9.807Z" style="fill-opacity:0;fill-rule:nonzero;"/><path d="M228.137,145.761l-65.335,11.52l-14.959,-10.223l10.458,-15.071l65.374,-11.527l4.462,25.301Zm-64.58,-5.562l-3.152,4.543l4.447,3.039l52.859,-9.32l-1.336,-7.575l-52.818,9.313Z" style="fill:#fdc31f;"/></g><g><path d="M69.676,151.968l59.097,-10.42l9.633,6.908l-6.735,9.53l-59.096,10.42l-2.899,-16.438Z" style="fill-opacity:0;fill-rule:nonzero;"/><path d="M144.66,147.403l-10.383,14.693l-65.352,11.523l-4.462,-25.301l65.394,-11.53l14.803,10.615Zm-69.771,8.215l1.336,7.575l52.84,-9.317l3.087,-4.367l-4.463,-3.201l-52.8,9.31Z" style="fill:#fa703f;"/></g></g><g><g><path d="M321.24,47.449l31.328,0c14.114,0 24.479,2.396 31.093,7.188c6.615,4.791 9.922,12.031 9.922,21.718c0,6.615 -2.018,12.123 -6.054,16.524c-4.037,4.401 -9.935,7.226 -17.696,8.476l0,0.469c9.115,1.354 15.821,4.232 20.118,8.633c4.296,4.401 6.445,10.534 6.445,18.398c0,10.521 -3.49,18.62 -10.469,24.297c-6.979,5.677 -16.875,8.516 -29.687,8.516l-35,0l0,-114.219Zm7.968,50.86l25.157,0c10.729,0 18.528,-1.784 23.398,-5.352c4.87,-3.568 7.305,-9.154 7.305,-16.758c0,-7.604 -2.748,-13.125 -8.242,-16.562c-5.495,-3.438 -13.685,-5.157 -24.571,-5.157l-23.047,0l0,43.829Zm0,7.031l0,49.297l26.875,0c21.146,0 31.719,-8.594 31.719,-25.782c0,-15.677 -11.146,-23.515 -33.437,-23.515l-25.157,0Z" style="fill:#fff;fill-rule:nonzero;"/><path d="M414.533,161.668l-7.734,0l0,-84.922l7.734,0l0,84.922Zm-8.828,-108.516c0,-5 1.641,-7.5 4.922,-7.5c1.615,0 2.878,0.651 3.789,1.953c0.912,1.302 1.367,3.151 1.367,5.547c0,2.344 -0.455,4.193 -1.367,5.547c-0.911,1.354 -2.174,2.031 -3.789,2.031c-3.281,0 -4.922,-2.526 -4.922,-7.578Z" style="fill:#fff;fill-rule:nonzero;"/><path d="M466.03,75.105c11.875,0 20.821,3.737 26.836,11.211c6.016,7.474 9.024,18.399 9.024,32.774c0,14.114 -3.164,25 -9.493,32.656c-6.328,7.656 -15.221,11.484 -26.679,11.484c-6.042,0 -11.485,-1.25 -16.328,-3.75c-4.844,-2.5 -8.672,-6.041 -11.485,-10.625l-0.703,0l-2.187,12.813l-4.844,0l0,-121.563l7.734,0l0,30.547c0,4.584 -0.104,8.802 -0.312,12.657l-0.235,6.64l0.547,0c3.229,-5.104 7.123,-8.854 11.68,-11.25c4.557,-2.396 10.039,-3.594 16.445,-3.594Zm-0.156,7.032c-10,0 -17.161,2.864 -21.484,8.593c-4.323,5.73 -6.485,15.183 -6.485,28.36l0,1.328c0,12.812 2.253,22.005 6.758,27.578c4.505,5.573 11.523,8.359 21.055,8.359c9.271,0 16.25,-3.242 20.937,-9.726c4.688,-6.485 7.031,-15.716 7.031,-27.695c0,-24.532 -9.27,-36.797 -27.812,-36.797Z" style="fill:#fff;fill-rule:nonzero;"/><rect x="514.205" y="40.105" width="7.734" height="121.563" style="fill:#fff;fill-rule:nonzero;"/><path d="M573.474,163.23c-12.344,0 -21.966,-3.802 -28.867,-11.406c-6.901,-7.604 -10.352,-18.255 -10.352,-31.953c0,-13.542 3.334,-24.388 10,-32.539c6.667,-8.151 15.651,-12.227 26.953,-12.227c10,0 17.891,3.49 23.672,10.469c5.781,6.979 8.672,16.458 8.672,28.438l0,6.25l-61.172,0c0.104,11.666 2.826,20.573 8.164,26.718c5.339,6.146 12.982,9.219 22.93,9.219c4.844,0 9.102,-0.338 12.773,-1.015c3.672,-0.678 8.321,-2.136 13.946,-4.375l0,7.031c-4.792,2.083 -9.219,3.502 -13.282,4.258c-4.062,0.755 -8.541,1.132 -13.437,1.132Zm-2.266,-81.25c-8.177,0 -14.739,2.696 -19.687,8.086c-4.948,5.391 -7.839,13.164 -8.672,23.321l52.5,0c0,-9.844 -2.135,-17.539 -6.406,-23.086c-4.271,-5.547 -10.183,-8.321 -17.735,-8.321Z" style="fill:#fff;fill-rule:nonzero;"/><path d="M732.927,161.668l-62.422,0l0,-114.219l62.422,0l0,7.344l-54.453,0l0,43.203l51.406,0l0,7.344l-51.406,0l0,48.984l54.453,0l0,7.344Z" style="fill:#fff;fill-rule:nonzero;"/><path d="M771.293,117.996l-29.61,-41.25l8.907,0l25.312,35.781l25.078,-35.781l8.516,0l-29.141,41.25l31.25,43.672l-8.984,0l-26.719,-37.891l-26.875,37.891l-8.516,0l30.782,-43.672Z" style="fill:#fff;fill-rule:nonzero;"/><path d="M849.624,163.23c-12.135,0 -21.641,-3.828 -28.516,-11.484c-6.875,-7.656 -10.312,-18.333 -10.312,-32.031c0,-14.063 3.568,-25.013 10.703,-32.852c7.135,-7.838 16.901,-11.758 29.297,-11.758c7.344,0 14.375,1.276 21.094,3.829l-2.11,6.875c-7.344,-2.448 -13.724,-3.672 -19.14,-3.672c-10.417,0 -18.308,3.216 -23.672,9.648c-5.365,6.432 -8.047,15.69 -8.047,27.774c0,11.458 2.682,20.429 8.047,26.914c5.364,6.484 12.864,9.726 22.5,9.726c7.708,0 14.87,-1.38 21.484,-4.14l0,7.187c-5.417,2.656 -12.526,3.984 -21.328,3.984Z" style="fill:#fff;fill-rule:nonzero;"/><path d="M944.552,161.668l0,-55.078c0,-8.542 -1.797,-14.753 -5.391,-18.633c-3.593,-3.88 -9.166,-5.82 -16.718,-5.82c-10.157,0 -17.591,2.565 -22.305,7.695c-4.714,5.13 -7.07,13.45 -7.07,24.961l0,46.875l-7.735,0l0,-121.563l7.735,0l0,38.672l-0.391,10.86l0.547,0c3.177,-5.105 7.187,-8.802 12.031,-11.094c4.844,-2.292 10.86,-3.438 18.047,-3.438c19.271,0 28.906,10.339 28.906,31.016l0,55.547l-7.656,0Z" style="fill:#fff;fill-rule:nonzero;"/><path d="M1023.27,161.668l-1.953,-13.438l-0.625,0c-4.271,5.469 -8.659,9.336 -13.164,11.602c-4.506,2.266 -9.831,3.398 -15.977,3.398c-8.333,0 -14.818,-2.135 -19.453,-6.406c-4.635,-4.271 -6.953,-10.182 -6.953,-17.734c0,-8.281 3.45,-14.714 10.351,-19.297c6.901,-4.583 16.888,-7.005 29.961,-7.266l16.172,-0.468l0,-5.625c0,-8.073 -1.64,-14.167 -4.922,-18.282c-3.281,-4.114 -8.567,-6.172 -15.859,-6.172c-7.865,0 -16.016,2.188 -24.453,6.563l-2.891,-6.719c9.323,-4.375 18.542,-6.562 27.656,-6.562c9.323,0 16.29,2.422 20.899,7.265c4.609,4.844 6.914,12.396 6.914,22.657l0,56.484l-5.703,0Zm-31.25,-5.469c9.062,0 16.211,-2.591 21.445,-7.773c5.235,-5.183 7.852,-12.383 7.852,-21.602l0,-8.359l-14.844,0.625c-11.927,0.573 -20.43,2.435 -25.508,5.586c-5.078,3.151 -7.617,8.06 -7.617,14.726c0,5.313 1.628,9.44 4.883,12.383c3.255,2.943 7.851,4.414 13.789,4.414Z" style="fill:#fff;fill-rule:nonzero;"/><path d="M1104.49,161.668l0,-55.078c0,-8.542 -1.797,-14.753 -5.391,-18.633c-3.594,-3.88 -9.167,-5.82 -16.719,-5.82c-10.156,0 -17.591,2.565 -22.304,7.695c-4.714,5.13 -7.071,13.45 -7.071,24.961l0,46.875l-7.734,0l0,-84.922l6.562,0l1.485,11.641l0.469,0c5.52,-8.855 15.338,-13.282 29.453,-13.282c19.271,0 28.906,10.339 28.906,31.016l0,55.547l-7.656,0Z" style="fill:#fff;fill-rule:nonzero;"/><path d="M1197.9,76.746l0,5.391l-17.578,1.093c4.687,5.834 7.031,12.24 7.031,19.219c0,8.177 -2.721,14.805 -8.164,19.883c-5.443,5.078 -12.747,7.617 -21.914,7.617c-3.854,0 -6.563,-0.156 -8.125,-0.469c-3.073,1.615 -5.417,3.516 -7.031,5.704c-1.615,2.187 -2.422,4.505 -2.422,6.953c0,2.708 1.028,4.687 3.086,5.937c2.057,1.25 5.508,1.875 10.351,1.875l14.844,0c9.219,0 16.276,1.862 21.172,5.586c4.896,3.724 7.344,9.232 7.344,16.524c0,8.958 -3.633,15.872 -10.899,20.742c-7.265,4.87 -17.617,7.304 -31.054,7.304c-10.677,0 -18.946,-2.057 -24.805,-6.171c-5.859,-4.115 -8.789,-9.844 -8.789,-17.188c0,-5.833 1.81,-10.677 5.43,-14.531c3.619,-3.854 8.528,-6.485 14.726,-7.891c-2.552,-1.094 -4.596,-2.643 -6.133,-4.648c-1.536,-2.005 -2.304,-4.31 -2.304,-6.914c0,-5.677 3.619,-10.677 10.859,-15c-4.948,-2.032 -8.802,-5.222 -11.563,-9.571c-2.76,-4.349 -4.14,-9.336 -4.14,-14.961c0,-8.489 2.695,-15.299 8.086,-20.429c5.39,-5.13 12.669,-7.696 21.836,-7.696c5.573,0 9.896,0.547 12.968,1.641l27.188,0Zm-68.75,99.297c0,11.667 8.672,17.5 26.016,17.5c22.291,0 33.437,-7.109 33.437,-21.328c0,-5.104 -1.745,-8.802 -5.234,-11.094c-3.49,-2.292 -9.141,-3.437 -16.953,-3.437l-13.907,0c-15.573,0 -23.359,6.119 -23.359,18.359Zm6.484,-72.813c0,6.563 1.993,11.654 5.977,15.274c3.984,3.62 9.31,5.43 15.976,5.43c7.084,0 12.513,-1.797 16.29,-5.391c3.776,-3.594 5.664,-8.802 5.664,-15.625c0,-7.24 -1.941,-12.669 -5.821,-16.289c-3.88,-3.62 -9.31,-5.43 -16.289,-5.43c-6.771,0 -12.096,1.94 -15.976,5.82c-3.881,3.881 -5.821,9.284 -5.821,16.211Z" style="fill:#fff;fill-rule:nonzero;"/><path d="M1240.02,163.23c-12.344,0 -21.966,-3.802 -28.867,-11.406c-6.902,-7.604 -10.352,-18.255 -10.352,-31.953c0,-13.542 3.333,-24.388 10,-32.539c6.667,-8.151 15.651,-12.227 26.953,-12.227c10,0 17.891,3.49 23.672,10.469c5.781,6.979 8.672,16.458 8.672,28.438l0,6.25l-61.172,0c0.104,11.666 2.825,20.573 8.164,26.718c5.339,6.146 12.982,9.219 22.93,9.219c4.843,0 9.101,-0.338 12.773,-1.015c3.672,-0.678 8.32,-2.136 13.945,-4.375l0,7.031c-4.791,2.083 -9.218,3.502 -13.281,4.258c-4.062,0.755 -8.541,1.132 -13.437,1.132Zm-2.266,-81.25c-8.177,0 -14.739,2.696 -19.687,8.086c-4.948,5.391 -7.839,13.164 -8.672,23.321l52.5,0c0,-9.844 -2.136,-17.539 -6.407,-23.086c-4.27,-5.547 -10.182,-8.321 -17.734,-8.321Z" style="fill:#fff;fill-rule:nonzero;"/><path d="M365.771,258.406c0,7.617 -2.754,13.594 -8.262,17.93c-5.508,4.336 -13.105,6.504 -22.793,6.504c-9.687,0 -17.617,-1.504 -23.789,-4.512l0,-13.242c3.906,1.836 8.057,3.281 12.451,4.336c4.395,1.055 8.487,1.582 12.276,1.582c5.547,0 9.638,-1.055 12.275,-3.164c2.637,-2.11 3.955,-4.942 3.955,-8.496c0,-3.203 -1.211,-5.918 -3.633,-8.145c-2.422,-2.226 -7.422,-4.863 -15,-7.91c-7.812,-3.164 -13.32,-6.777 -16.523,-10.84c-3.203,-4.062 -4.805,-8.945 -4.805,-14.648c0,-7.149 2.539,-12.774 7.617,-16.875c5.079,-4.102 11.895,-6.153 20.45,-6.153c8.203,0 16.367,1.797 24.492,5.391l-4.453,11.426c-7.618,-3.203 -14.414,-4.805 -20.391,-4.805c-4.531,0 -7.969,0.986 -10.312,2.959c-2.344,1.973 -3.516,4.58 -3.516,7.822c0,2.227 0.469,4.131 1.406,5.713c0.938,1.582 2.481,3.076 4.629,4.483c2.149,1.406 6.016,3.261 11.602,5.566c6.289,2.617 10.898,5.059 13.828,7.324c2.929,2.266 5.078,4.825 6.445,7.676c1.367,2.852 2.051,6.211 2.051,10.078Z" style="fill:#fff;fill-rule:nonzero;"/><path d="M402.221,282.84c-9.805,0 -17.256,-2.862 -22.354,-8.584c-5.097,-5.723 -7.646,-13.936 -7.646,-24.639c0,-10.898 2.666,-19.277 7.998,-25.137c5.332,-5.859 13.037,-8.789 23.115,-8.789c6.836,0 12.988,1.27 18.457,3.809l-4.16,11.074c-5.82,-2.265 -10.625,-3.398 -14.414,-3.398c-11.211,0 -16.816,7.441 -16.816,22.324c0,7.266 1.396,12.725 4.189,16.377c2.793,3.652 6.885,5.478 12.275,5.478c6.133,0 11.934,-1.523 17.403,-4.57l0,12.012c-2.461,1.445 -5.088,2.48 -7.881,3.105c-2.793,0.625 -6.182,0.938 -10.166,0.938Z" style="fill:#fff;fill-rule:nonzero;"/><path d="M487.714,281.668l-13.828,0l0,-39.844c0,-5 -1.006,-8.73 -3.018,-11.191c-2.012,-2.461 -5.205,-3.692 -9.58,-3.692c-5.781,0 -10.029,1.729 -12.744,5.186c-2.715,3.457 -4.072,9.248 -4.072,17.373l0,32.168l-13.77,0l0,-91.172l13.77,0l0,23.145c0,3.711 -0.235,7.675 -0.703,11.894l0.878,0c1.875,-3.125 4.483,-5.547 7.823,-7.266c3.34,-1.718 7.236,-2.578 11.689,-2.578c15.703,0 23.555,7.911 23.555,23.731l0,42.246Z" style="fill:#fff;fill-rule:nonzero;"/><path d="M558.354,249.148c0,10.586 -2.714,18.848 -8.144,24.786c-5.43,5.937 -12.988,8.906 -22.676,8.906c-6.055,0 -11.406,-1.367 -16.055,-4.102c-4.648,-2.734 -8.222,-6.66 -10.722,-11.777c-2.5,-5.117 -3.75,-11.055 -3.75,-17.813c0,-10.507 2.695,-18.711 8.086,-24.609c5.39,-5.898 12.988,-8.848 22.793,-8.848c9.375,0 16.797,3.018 22.265,9.053c5.469,6.035 8.203,14.17 8.203,24.404Zm-47.168,0c0,14.961 5.528,22.442 16.583,22.442c10.937,0 16.406,-7.481 16.406,-22.442c0,-14.804 -5.508,-22.207 -16.524,-22.207c-5.781,0 -9.97,1.914 -12.568,5.743c-2.598,3.828 -3.897,9.316 -3.897,16.464Z" style="fill:#fff;fill-rule:nonzero;"/><path d="M628.055,249.148c0,10.586 -2.715,18.848 -8.144,24.786c-5.43,5.937 -12.989,8.906 -22.676,8.906c-6.055,0 -11.406,-1.367 -16.055,-4.102c-4.648,-2.734 -8.222,-6.66 -10.722,-11.777c-2.5,-5.117 -3.75,-11.055 -3.75,-17.813c0,-10.507 2.695,-18.711 8.086,-24.609c5.39,-5.898 12.988,-8.848 22.792,-8.848c9.375,0 16.797,3.018 22.266,9.053c5.469,6.035 8.203,14.17 8.203,24.404Zm-47.168,0c0,14.961 5.528,22.442 16.582,22.442c10.938,0 16.407,-7.481 16.407,-22.442c0,-14.804 -5.508,-22.207 -16.524,-22.207c-5.781,0 -9.971,1.914 -12.568,5.743c-2.598,3.828 -3.897,9.316 -3.897,16.464Z" style="fill:#fff;fill-rule:nonzero;"/><rect x="636.676" y="190.496" width="13.77" height="91.172" style="fill:#fff;fill-rule:nonzero;"/><path d="M744.385,249.148c0,10.586 -2.715,18.848 -8.145,24.786c-5.429,5.937 -12.988,8.906 -22.675,8.906c-6.055,0 -11.407,-1.367 -16.055,-4.102c-4.649,-2.734 -8.223,-6.66 -10.723,-11.777c-2.5,-5.117 -3.75,-11.055 -3.75,-17.813c0,-10.507 2.696,-18.711 8.086,-24.609c5.391,-5.898 12.988,-8.848 22.793,-8.848c9.375,0 16.797,3.018 22.266,9.053c5.469,6.035 8.203,14.17 8.203,24.404Zm-47.168,0c0,14.961 5.527,22.442 16.582,22.442c10.937,0 16.406,-7.481 16.406,-22.442c0,-14.804 -5.508,-22.207 -16.523,-22.207c-5.781,0 -9.971,1.914 -12.569,5.743c-2.597,3.828 -3.896,9.316 -3.896,16.464Z" style="fill:#fff;fill-rule:nonzero;"/><path d="M787.925,227.293l-15.821,0l0,54.375l-13.828,0l0,-54.375l-10.664,0l0,-6.445l10.664,-4.219l0,-4.219c0,-7.656 1.797,-13.33 5.391,-17.021c3.594,-3.692 9.082,-5.537 16.465,-5.537c4.844,0 9.609,0.8 14.297,2.402l-3.633,10.43c-3.399,-1.094 -6.641,-1.641 -9.727,-1.641c-3.125,0 -5.4,0.967 -6.826,2.9c-1.426,1.934 -2.139,4.834 -2.139,8.701l0,4.219l15.821,0l0,10.43Z" style="fill:#fff;fill-rule:nonzero;"/><path d="M866.208,281.668l-24.843,-71.543l-0.469,0c0.664,10.625 0.996,20.586 0.996,29.883l0,41.66l-12.715,0l0,-85.664l19.746,0l23.789,68.144l0.352,0l24.492,-68.144l19.805,0l0,85.664l-13.477,0l0,-42.363c0,-4.258 0.108,-9.805 0.322,-16.641c0.215,-6.836 0.401,-10.977 0.557,-12.422l-0.469,0l-25.722,71.426l-12.364,0Z" style="fill:#fff;fill-rule:nonzero;"/><path d="M943.824,281.668l-13.77,0l0,-64.805l13.77,0l0,64.805Zm-14.59,-81.973c0,-2.461 0.674,-4.355 2.022,-5.683c1.347,-1.328 3.271,-1.993 5.771,-1.993c2.422,0 4.307,0.665 5.654,1.993c1.348,1.328 2.022,3.222 2.022,5.683c0,2.344 -0.674,4.19 -2.022,5.537c-1.347,1.348 -3.232,2.022 -5.654,2.022c-2.5,0 -4.424,-0.674 -5.771,-2.022c-1.348,-1.347 -2.022,-3.193 -2.022,-5.537Z" style="fill:#fff;fill-rule:nonzero;"/><path d="M1014.52,281.668l-13.828,0l0,-39.844c0,-5 -1.006,-8.73 -3.018,-11.191c-2.011,-2.461 -5.205,-3.692 -9.58,-3.692c-5.82,0 -10.078,1.719 -12.773,5.157c-2.695,3.437 -4.043,9.199 -4.043,17.285l0,32.285l-13.77,0l0,-64.805l10.782,0l1.933,8.496l0.703,0c1.954,-3.086 4.727,-5.468 8.321,-7.148c3.594,-1.68 7.578,-2.52 11.953,-2.52c15.547,0 23.32,7.911 23.32,23.731l0,42.246Z" style="fill:#fff;fill-rule:nonzero;"/><path d="M1040.25,281.668l-13.77,0l0,-64.805l13.77,0l0,64.805Zm-14.59,-81.973c0,-2.461 0.674,-4.355 2.022,-5.683c1.347,-1.328 3.271,-1.993 5.771,-1.993c2.422,0 4.307,0.665 5.654,1.993c1.348,1.328 2.022,3.222 2.022,5.683c0,2.344 -0.674,4.19 -2.022,5.537c-1.347,1.348 -3.232,2.022 -5.654,2.022c-2.5,0 -4.424,-0.674 -5.771,-2.022c-1.348,-1.347 -2.022,-3.193 -2.022,-5.537Z" style="fill:#fff;fill-rule:nonzero;"/><path d="M1099.88,263.211c0,6.328 -2.305,11.182 -6.915,14.56c-4.609,3.379 -11.21,5.069 -19.804,5.069c-8.633,0 -15.567,-1.309 -20.801,-3.926l0,-11.895c7.617,3.516 14.707,5.274 21.27,5.274c8.476,0 12.714,-2.559 12.714,-7.676c0,-1.64 -0.468,-3.008 -1.406,-4.101c-0.937,-1.094 -2.48,-2.227 -4.629,-3.399c-2.148,-1.172 -5.136,-2.5 -8.965,-3.984c-7.461,-2.891 -12.509,-5.781 -15.146,-8.672c-2.637,-2.891 -3.955,-6.641 -3.955,-11.25c0,-5.547 2.236,-9.854 6.709,-12.92c4.472,-3.066 10.556,-4.6 18.252,-4.6c7.617,0 14.824,1.543 21.621,4.629l-4.453,10.371c-6.992,-2.89 -12.871,-4.336 -17.637,-4.336c-7.266,0 -10.898,2.071 -10.898,6.211c0,2.032 0.947,3.75 2.841,5.157c1.895,1.406 6.026,3.339 12.393,5.8c5.352,2.071 9.238,3.965 11.66,5.684c2.422,1.719 4.219,3.701 5.391,5.947c1.172,2.246 1.758,4.932 1.758,8.057Z" style="fill:#fff;fill-rule:nonzero;"/><path d="M1137.7,271.707c3.359,0 6.719,-0.527 10.078,-1.582l0,10.371c-1.523,0.664 -3.486,1.221 -5.889,1.67c-2.402,0.449 -4.892,0.674 -7.47,0.674c-13.047,0 -19.571,-6.875 -19.571,-20.625l0,-34.922l-8.847,0l0,-6.094l9.492,-5.039l4.687,-13.711l8.497,0l0,14.414l18.457,0l0,10.43l-18.457,0l0,34.687c0,3.321 0.83,5.772 2.49,7.354c1.66,1.582 3.838,2.373 6.533,2.373Z" style="fill:#fff;fill-rule:nonzero;"/><path d="M1191.2,215.691c2.774,0 5.059,0.196 6.856,0.586l-1.348,12.832c-1.953,-0.468 -3.984,-0.703 -6.094,-0.703c-5.507,0 -9.97,1.797 -13.388,5.391c-3.418,3.594 -5.127,8.262 -5.127,14.004l0,33.867l-13.77,0l0,-64.805l10.782,0l1.816,11.426l0.703,0c2.149,-3.867 4.951,-6.934 8.408,-9.199c3.457,-2.266 7.178,-3.399 11.162,-3.399Z" style="fill:#fff;fill-rule:nonzero;"/><path d="M1200.22,216.863l15,0l13.183,36.739c1.993,5.234 3.321,10.156 3.985,14.765l0.469,0c0.351,-2.148 0.996,-4.756 1.933,-7.822c0.938,-3.067 5.899,-17.627 14.883,-43.682l14.883,0l-27.715,73.418c-5.039,13.477 -13.438,20.215 -25.195,20.215c-3.047,0 -6.016,-0.332 -8.907,-0.996l0,-10.898c2.071,0.468 4.434,0.703 7.09,0.703c6.641,0 11.309,-3.848 14.004,-11.543l2.402,-6.094l-26.015,-64.805Z" style="fill:#fff;fill-rule:nonzero;"/></g></g></svg>